<svg width="16" height="16" viewBox="0 0 16 16" xmlns="http://www.w3.org/2000/svg">
  <!-- Simplified version for favicon -->
  <!-- Orange drop at top -->
  <path d="M8 1 C7 1, 6 2, 6 4 C6 5, 7 6, 8 6 C9 6, 10 5, 10 4 C10 2, 9 1, 8 1 Z" fill="#FFB366"/>
  
  <!-- Green side elements -->
  <path d="M2 6 C1 6, 0 7, 0 8 C0 9, 1 10, 2 10 Z" fill="#6BCFA0"/>
  <path d="M14 6 C15 6, 16 7, 16 8 C16 9, 15 10, 14 10 Z" fill="#6BCFA0"/>
  
  <!-- Blue center element -->
  <path d="M5 8 C6 7, 9 7, 10 8 C10 9, 9 10, 8 10 C7 10, 6 9, 5 8 Z" fill="#5BC5E8"/>
  
  <!-- Pink accent -->
  <path d="M7 8 C8 7, 9 8, 9 8 C9 9, 8 9, 7 9 Z" fill="#FF8B94"/>
  
  <!-- Bottom elements -->
  <path d="M2 11 C1 11, 0 12, 0 13 C0 14, 1 15, 2 15 L2 11 Z" fill="#6BCFA0"/>
  <path d="M14 11 C15 11, 16 12, 16 13 C16 14, 15 15, 14 15 L14 11 Z" fill="#6BCFA0"/>
  
  <!-- Bottom center accent -->
  <path d="M8 12 L7 14 L8 15 L9 14 Z" fill="#FF8B94"/>
</svg>